<svg xmlns="http://www.w3.org/2000/svg" width="320" height="320" viewBox="0 0 320 320">
  <g fill="none" stroke="#1f6f72" stroke-opacity="0.05" stroke-width="2" stroke-linecap="round">
    <!-- 椰叶 1 -->
    <g transform="translate(70,60) rotate(20)">
      <path d="M0,0 C0,-30 0,-60 0,-90"/>
      <path d="M0,-12 C-14,-22 -26,-26 -36,-26 M0,-12 C14,-22 26,-26 36,-26"/>
      <path d="M0,-34 C-12,-44 -22,-48 -31,-48 M0,-34 C12,-44 22,-48 31,-48"/>
      <path d="M0,-56 C-10,-65 -18,-69 -26,-69 M0,-56 C10,-65 18,-69 26,-69"/>
      <path d="M0,-76 C-7,-83 -13,-86 -19,-86 M0,-76 C7,-83 13,-86 19,-86"/>
    </g>
    <!-- 椰叶 2 -->
    <g transform="translate(230,220) rotate(-150)">
      <path d="M0,0 C0,-28 0,-56 0,-84"/>
      <path d="M0,-12 C-13,-21 -24,-24 -33,-24 M0,-12 C13,-21 24,-24 33,-24"/>
      <path d="M0,-32 C-11,-41 -20,-44 -28,-44 M0,-32 C11,-41 20,-44 28,-44"/>
      <path d="M0,-52 C-9,-60 -16,-63 -23,-63 M0,-52 C9,-60 16,-63 23,-63"/>
    </g>
  </g>
</svg>
